<svg xmlns="http://www.w3.org/2000/svg" viewBox="0 0 225.89 67.72" fill="currentColor">
  <path d="M37.25 57.31H7.01v-6.39l16.4-19.31c3.05-3.55 4.54-6.53 4.54-9.72 0-3.98-2.91-5.96-6.1-5.96s-5.82 2.06-6.1 5.96H6.94c0-8.45 6.96-14.2 15.4-14.2s15.47 6.1 15.47 14.2c0 6.46-4.26 11.5-7.38 15.19l-10.08 11.85h16.89v8.38Z"/>
  <path d="M69.48 8.33l-15.26 33.58h9.37v-12.49h9.94v12.49h4.47v8.45h-4.47v6.96h-9.94v-6.96h-21.72v-6.89L58.62 8.33h10.86Z"/>
  <path d="M78.95 24.37V8.33h29.96v6.96l-14.13 42.02h-10.29l14.2-40.53h-11.29v7.6h-8.45Z"/>
  <path d="M124.99 48.93h20.58v8.38h-30.52V8.33h9.94v40.6Z"/>
  <path d="M177.8 8.33v8.45h-13.49v40.53h-9.94V16.78h-13.49v-8.45h36.91Z"/>
  <path d="M182.55 57.31V8.33h17.39c11.07 0 18.81 5.68 18.81 21.3v6.39c0 15.54-7.74 21.29-18.81 21.29h-17.39ZM208.81 36.02v-6.39c0-8.45-2.27-12.85-8.87-12.85h-7.45v32.16h7.45c6.6 0 8.87-4.47 8.87-12.92Z"/>
</svg>