<?xml version="1.0" encoding="UTF-8"?>
<svg id="Layer_1" xmlns="http://www.w3.org/2000/svg" version="1.1" viewBox="0 0 24 24">
  <!-- Generator: Adobe Illustrator 29.8.4, SVG Export Plug-In . SVG Version: 2.1.1 Build 6)  -->
  <path d="M16.3,18.7h0c-.37-.77.23-2.99.43-3.72l.1-.4c.02-.07.03-.13.05-.21.05-.35.04-.62-.05-.86v-2.97c.12-.28.09-.58.05-.79-.03-.56-.39-1.02-.45-1.07-1.26-1.82-1.58-3.63-1.66-4.45.15-.16.23-.37.23-.58V1.35c0-.69-.61-1.27-1.32-1.27h-3.39c-.73,0-1.32.57-1.32,1.27v2.29c0,.27.13.53.34.69-.15.95-.57,2.62-1.75,4.31l-.05.07c-.13.19-.36.54-.4.91-.07.24-.12.59.04.92v3.03c-.05.17-.11.47-.05.81l.02.08s.02.05.03.09c.02.06.04.13.06.2.72,2.56.66,3.55.49,3.93-.68,1.44-1.05,2.42-.02,4.34.03.06.07.15.16.23.46.46,1.67.69,3.6.69h1.09c1.86,0,3.07-.22,3.6-.64l.11-.13s.06-.08.08-.12c1.02-1.9.68-2.84-.02-4.34h0ZM10.76,2.73v-.89h2.46v.89h-2.46ZM13,4.52c.11,1.06.48,2.82,1.63,4.67h-5.32c1.17-1.86,1.61-3.62,1.77-4.67,0,0,1.92,0,1.92,0ZM8.96,12.86v-1.91h6.1v1.91s-6.1,0-6.1,0ZM9.3,19.43c.55-1.16.22-2.97-.26-4.8h5.95c-.5,1.84-.85,3.66-.3,4.83.5,1.06.69,1.44.19,2.48-.49.14-1.3.21-2.33.21h-1.09c-1.31,0-2-.12-2.33-.21-.49-1.05-.32-1.41.19-2.5h-.02Z"/>
</svg>