<svg xmlns="http://www.w3.org/2000/svg" viewBox="0 0 245.33 53.93" fill="currentColor">
  <path d="M28.97 21.91v10.53h-9.18c-1.23 0-2.11.19-2.63.57-.52.38-.78 1-.78 1.85 0 1 .25 1.66.75 1.99s1.6.5 3.31.5h9.46v13.52h-11.1c-5.22 0-9.2-1.25-11.95-3.74-2.75-2.49-4.13-6.08-4.13-10.78v-18.57c0-4.55 1.3-8.09 3.91-10.6 2.61-2.51 6.28-3.77 11.03-3.77h12.24v13.66h-9.03c-2.42 0-3.63.78-3.63 2.35 0 1 .32 1.66.96 1.99.64.33 1.65.5 3.02.5h7.75Z"/>
  <path d="M37.01 50.87v-30.8c0-5.36 1.61-9.66 4.84-12.91 3.23-3.25 7.54-4.87 12.95-4.87s9.39 1.58 12.24 4.73c2.85 3.16 4.27 7.67 4.27 13.55v30.31h-14.09v-30.31c0-2.89-1.04-4.34-3.13-4.34-1.95 0-2.92 1.45-2.92 4.34v30.31h-14.16Z"/>
  <path d="M94 17.07v33.79h-14.09V3.42h18.35c8.39 0 15.01 2.11 19.85 6.33 4.84 4.22 7.26 9.89 7.26 17s-2.32 13.01-6.97 17.54c-4.65 4.53-10.62 6.79-17.93 6.79-.28 0-1.68-.05-4.2-.14v-13.94h2.28c8.25 0 12.38-3.42 12.38-10.24 0-6.45-4.05-9.67-12.17-9.67h-4.77Z"/>
  <path d="M165.28 3.42v30.45c0 5.41-1.6 9.72-4.8 12.95-3.2 3.23-7.51 4.84-12.91 4.84s-9.46-1.57-12.31-4.7-4.27-7.66-4.27-13.59V3.42h14.16v29.95c0 2.89 1.02 4.34 3.06 4.34s2.99-1.45 2.99-4.34V3.42h14.09Z"/>
  <path d="M187.97 16.22v34.65h-14.09V3.42h18.07c5.55 0 9.92 1.46 13.13 4.38s4.8 6.72 4.8 11.42-2.11 8.87-6.33 12.09l8.18 19.56h-14.87l-6.83-15.3v-12.17h1.14c2.99 0 4.48-1.28 4.48-3.84 0-2.23-1.73-3.34-5.19-3.34h-2.49Z"/>
  <path d="M241.68 21.91v10.53h-9.18c-1.23 0-2.11.19-2.63.57-.52.38-.78 1-.78 1.85 0 1 .25 1.66.75 1.99s1.6.5 3.31.5h9.46v13.52h-11.1c-5.22 0-9.2-1.25-11.95-3.74-2.75-2.49-4.13-6.08-4.13-10.78v-18.57c0-4.55 1.3-8.09 3.91-10.6 2.61-2.51 6.28-3.77 11.03-3.77h12.24v13.66h-9.04c-2.42 0-3.63.78-3.63 2.35 0 1 .32 1.66.96 1.99.64.33 1.65.5 3.02.5h7.75Z"/>
</svg>