<svg xmlns="http://www.w3.org/2000/svg" viewBox="0 0 24 24">
  <path fill-rule="evenodd" d="M21.3,1.12H2.76c-.89,0-1.64.7-1.64,1.57v18.62c0,.86.49,1.57,1.38,1.57h18.54c.89,0,1.83-.7,1.83-1.57V2.69c0-.86-.69-1.57-1.58-1.57ZM9.33,9.33h3.03v1.54h.03c.46-.83,1.82-1.68,3.51-1.68,3.23,0,4.14,1.72,4.14,4.9v5.94h-3.21v-5.36c0-1.42-.57-2.67-1.9-2.67-1.61,0-2.38,1.09-2.38,2.89v5.14h-3.21v-10.71h0ZM3.98,20.04h3.21v-10.71h-3.21v10.71ZM7.59,5.58c0,1.11-.9,2.01-2.01,2.01s-2.01-.9-2.01-2.01.9-2.01,2.01-2.01,2.01.9,2.01,2.01Z"/>
</svg>