<svg xmlns="http://www.w3.org/2000/svg" viewBox="0 0 24 24">
  <path d="M12,.13C5.45.13.13,5.45.13,12s5.33,11.87,11.87,11.87,11.87-5.33,11.87-11.87S18.55.13,12,.13ZM19.62,18.94c-.58-.52-1.39-1.2-2.38-1.77.58-1.26,1.03-2.41,1.22-4.21h3.85c-.24,2.52-1.22,4.39-2.68,5.98ZM17.42,11.55c0,.13-.01-.03-.02.33h-4.86v-3.04c1.44-.05,2.82-.45,4.2-1.16.48,1.27.69,2.55.68,3.87ZM12.54,16.93c1.08.08,2.26.41,3.22.85-1.05,1.92-2.5,3.43-3.22,4.32v-5.16ZM12.54,15.79v-2.83h4.76c-.19,1.44-.55,2.6-1.06,3.72-1.09-.5-2.62-.8-3.7-.89ZM12.54,7.7V1.74c1.44,1.58,2.95,3.22,3.77,4.91-1.24.65-2.69,1-3.77,1.05ZM14.24,1.88c1.89.42,3.58,1.35,4.93,2.64-.64.6-1.28,1.11-1.93,1.54-.71-1.44-1.71-2.83-3-4.19ZM11.46,1.79v5.88c-1.44-.13-2.49-.56-3.49-1.09,1.1-2.15,2.41-3.83,3.49-4.79ZM6.84,5.99c-.83-.54-1.5-1.11-1.94-1.53,1.31-1.23,2.94-2.13,4.75-2.55-.9,1.02-1.95,2.41-2.81,4.08ZM11.46,8.81v3.07h-5.09c.05-1.8.5-2.98,1.05-4.3,1.14.59,2.6,1.11,4.04,1.24ZM11.46,12.96v2.83c-1.44.08-2.72.38-4,1.04-.57-1.24-.97-2.44-1.07-3.88h5.07ZM11.46,16.94v5.18c-1.44-1.35-2.6-2.75-3.42-4.19,1.12-.58,2.34-.91,3.42-.99ZM9.7,22.11c-1.69-.38-3.22-1.18-4.48-2.28.57-.51,1.14-.95,1.72-1.33.7,1.23,1.63,2.44,2.76,3.61ZM16.72,18.32c.85.5,1.55,1.05,2.07,1.5-1.35,1.17-3,2-4.82,2.36.85-.95,1.88-2.26,2.75-3.86ZM22.37,11.88h-3.81c0-.36.01-.2.01-.32,0-1.53-.28-3.01-.86-4.46.76-.49,1.51-1.11,2.24-1.8,1.5,1.79,2.41,4.06,2.42,6.58ZM4.11,5.24c.51.49,1.27,1.12,2.24,1.73-.63,1.48-1.07,3.11-1.12,4.91H1.63c0-2.52.94-4.84,2.48-6.64ZM1.69,12.96h3.56c.1,1.8.49,3.03,1.15,4.45-.68.43-1.35.91-2.01,1.51-1.47-1.59-2.46-3.44-2.7-5.96Z"/>
</svg>